<svg xmlns="http://www.w3.org/2000/svg" width="323.246" height="221.624" viewBox="0 0 323.246 221.624"><g transform="translate(-52.914 -345.391)"><path d="M3843.414,507.3V496.461c0-60.1,96.175-209.78,160.092-209.78,69.111,0,162.154,153.644,162.154,209.78v10.492Z" transform="translate(-3790 59.211)" fill="#fff" stroke="#b1b1b1" stroke-width="1"/><g transform="translate(0 -32)"><path d="M3994.125,450.074,3994,495.668a229.5,229.5,0,0,0-32.681,23.04l-8.591-44.673C3971.032,459.173,3988.588,451.179,3994.125,450.074Z" transform="translate(-3784 -23)" fill="#f2f2f2"/><path d="M3952.727,450.074l.125,45.595a229.5,229.5,0,0,1,32.681,23.04l8.591-44.673C3975.82,459.173,3958.264,451.179,3952.727,450.074Z" transform="translate(-3734.277 -23)" fill="#f2f2f2"/><path d="M3992.659,445.1l8.995,44.473c-6.169,5.028-19.132,21.178-28.328,32.946l-15.946-34.84C3968.752,471.437,3974.937,462.11,3992.659,445.1Z" transform="translate(-3831.728 12.849)" fill="#f2f2f2"/><path d="M3966.375,445.1l-8.995,44.473c6.169,5.028,19.132,21.178,28.328,32.946l15.946-34.84C3990.281,471.437,3984.1,462.11,3966.375,445.1Z" transform="translate(-3698.73 12.849)" fill="#f2f2f2"/><path d="M3997.2,437.956l15.648,33.463c-5.9,8.2-14.97,23.375-22.162,36.127l-20.932-11.255C3976.266,479.018,3988.068,451.2,3997.2,437.956Z" transform="translate(-3874.728 68.849)" fill="#f2f2f2"/><path d="M3985.4,437.956l-15.648,33.463c5.9,8.2,14.97,23.375,22.162,36.127l20.932-11.255C4006.333,479.018,3994.531,451.2,3985.4,437.956Z" transform="translate(-3679.296 68.849)" fill="#f2f2f2"/></g></g></svg>